<?xml version="1.0" encoding="UTF-8" standalone="no"?>
<!-- Created with Inkscape (http://www.inkscape.org/) -->

<svg
   xmlns:dc="http://purl.org/dc/elements/1.1/"
   xmlns:cc="http://creativecommons.org/ns#"
   xmlns:rdf="http://www.w3.org/1999/02/22-rdf-syntax-ns#"
   xmlns:svg="http://www.w3.org/2000/svg"
   xmlns="http://www.w3.org/2000/svg"
   xmlns:sodipodi="http://sodipodi.sourceforge.net/DTD/sodipodi-0.dtd"
   xmlns:inkscape="http://www.inkscape.org/namespaces/inkscape"
   width="90.087654mm"
   height="90.087654mm"
   viewBox="0 0 319.20821 319.20823"
   id="svg2"
   version="1.1"
   inkscape:version="0.91 r13725"
   sodipodi:docname="favicon.svg">
  <defs
     id="defs4" />
  <sodipodi:namedview
     id="base"
     pagecolor="#ffffff"
     bordercolor="#666666"
     borderopacity="1.0"
     inkscape:pageopacity="0.0"
     inkscape:pageshadow="2"
     inkscape:zoom="0.98994949"
     inkscape:cx="45.804666"
     inkscape:cy="144.62722"
     inkscape:document-units="px"
     inkscape:current-layer="layer1"
     showgrid="false"
     fit-margin-top="0"
     fit-margin-left="0"
     fit-margin-right="0"
     fit-margin-bottom="0"
     inkscape:window-width="1366"
     inkscape:window-height="705"
     inkscape:window-x="-8"
     inkscape:window-y="-8"
     inkscape:window-maximized="1"
     showguides="true"
     inkscape:guide-bbox="true">
    <sodipodi:guide
       position="-188.49241,419.61946"
       orientation="0,1"
       id="guide4194" />
  </sodipodi:namedview>
  <metadata
     id="metadata7">
    <rdf:RDF>
      <cc:Work
         rdf:about="">
        <dc:format>image/svg+xml</dc:format>
        <dc:type
           rdf:resource="http://purl.org/dc/dcmitype/StillImage" />
        <dc:title></dc:title>
      </cc:Work>
    </rdf:RDF>
  </metadata>
  <g
     inkscape:label="Layer 1"
     inkscape:groupmode="layer"
     id="layer1"
     transform="translate(-61.539612,-532.67378)">
    <circle
       style="fill:#afc6e9;fill-opacity:1;stroke:none"
       id="path4192"
       cx="221.14372"
       cy="692.27789"
       r="159.60411" />
    <path
       style="fill:#0044aa"
       d="M 96.830078,165.77148 C 92.319768,165.77148 87.95324,166.58396 83.921875,168.00781 A 159.60411,159.60411 0 0 0 95.287109,189.66016 C 95.800214,189.63923 96.312985,189.61523 96.830078,189.61523 102.64601,189.61523 108.23182,190.96751 113.20508,193.25977 118.02535,195.43416 123.4754,196.6875 129.0957,196.6875 134.73859,196.6875 140.18862,195.43416 144.98633,193.25977 149.98216,190.96751 155.5516,189.61523 161.41016,189.61523 167.23111,189.61523 172.79373,190.96751 177.75195,193.25977 182.61485,195.43416 188.03876,196.6875 193.68164,196.6875 199.34709,196.6875 204.73335,195.43416 209.59375,193.25977 214.5319,190.96751 220.13717,189.61523 225.93555,189.61523 231.79411,189.61523 237.35964,190.96751 242.35547,193.25977 245.88606,194.85905 249.75566,195.95897 253.79297,196.42969 L 253.79297,196.6875 C 254.14566,196.6875 254.49885,196.68354 254.84961,196.67383 255.2355,196.66314 255.62055,196.64529 256.00391,196.62305 256.7343,196.66551 257.46891,196.6875 258.20703,196.6875 L 258.20703,196.42969 C 262.25193,195.95956 266.12083,194.86025 269.68359,193.25977 274.63678,190.96751 280.241,189.61523 286.06445,189.61523 291.88791,189.61523 297.48817,190.96751 302.40625,193.25977 307.2842,195.43416 312.69005,196.6875 318.37305,196.6875 318.72448,196.6875 319.07598,196.68354 319.42578,196.67383 324.67274,196.52809 329.72514,195.29826 334.24414,193.25977 338.87366,191.11077 344.08685,189.78972 349.53125,189.63281 349.89421,189.62235 350.25815,189.61523 350.62305,189.61523 354.96436,189.61523 359.17731,190.37165 363.10352,191.70703 A 159.60411,159.60411 0 0 0 374.16211,171.83398 C 371.66872,171.24866 369.26331,170.43503 367,169.41406 362.02674,167.1218 356.43898,165.77148 350.62305,165.77148 350.25815,165.77148 349.89421,165.77665 349.53125,165.78711 344.08685,165.94402 338.87366,167.26506 334.24414,169.41406 329.72514,171.45255 324.67274,172.69973 319.42578,172.84766 319.07598,172.85752 318.72448,172.86328 318.37305,172.86328 312.69506,172.86328 307.2842,171.58845 302.40625,169.41406 297.48817,167.1218 291.88039,165.77148 286.06445,165.77148 280.24602,165.77148 274.64431,167.1218 269.68359,169.41406 265.47859,171.30304 260.84739,172.51192 256.00391,172.79688 251.17028,172.5119 246.52556,171.30302 242.35547,169.41406 237.35964,167.1218 231.79411,165.77148 225.93555,165.77148 220.13467,165.77148 214.5319,167.1218 209.59375,169.41406 204.73084,171.58845 199.34709,172.86328 193.68164,172.86328 188.03876,172.86328 182.61235,171.58845 177.75195,169.41406 172.79373,167.1218 167.22609,165.77148 161.41016,165.77148 155.5516,165.77148 149.98216,167.1218 144.98633,169.41406 140.18862,171.58845 134.73859,172.86328 129.0957,172.86328 123.4754,172.86328 118.02535,171.58845 113.20508,169.41406 108.23182,167.1218 102.64601,165.77148 96.830078,165.77148 Z"
       transform="translate(-8.7649541,588.29331)"
       id="path4147"
       inkscape:connector-curvature="0" />
    <path
       style="fill:#333333;fill-opacity:1;stroke:none"
       d="M 131.76534,588.29331 101.03782,627.02801 106.05845,631.01124 136.78597,592.27655 131.76534,588.29331 Z"
       id="path4263"
       inkscape:connector-curvature="0" />
    <path
       style="fill:#aa0000;fill-opacity:1;stroke:none"
       d="M 323.52777,597.70436 204.84787,747.3074 C 208.9997,745.80291 213.47578,744.9449 218.1377,744.9449 223.95363,744.9449 229.52135,746.29597 234.47956,748.58823 239.33996,750.76262 244.76695,752.03682 250.40983,752.03682 256.07528,752.03682 261.46036,750.76262 266.32327,748.58823 270.05349,746.85669 274.16325,745.66378 278.45088,745.18301 L 326.51962,684.58746 326.35852,684.46 C 326.84833,683.65775 327.29738,682.83275 327.78983,682.02315 329.08029,679.41984 330.6539,676.99264 331.50043,674.16202 331.51731,674.07618 331.54272,674.01597 331.54557,673.94781 337.7721,652.70106 332.61827,626.03104 327.45435,607.82353 L 323.52777,597.70436 Z"
       id="path4261"
       inkscape:connector-curvature="0" />
    <path
       style="fill:#666666;fill-opacity:1;stroke:none"
       d="M 145.39418,599.10469 114.66666,637.83939 163.66481,676.70952 152.85344,690.33836 108.87593,655.45234 95.21964,672.66787 139.19627,707.55388 106.31338,749.00691 C 110.93417,750.92528 116.00569,752.03682 121.30891,752.03682 126.93173,752.03682 132.35872,750.76262 137.17899,748.58823 137.3109,748.527 137.44534,748.46931 137.5782,748.40943 A 11.90291,11.90291 0 0 1 140.1434,741.2644 11.90291,11.90291 0 0 1 149.46681,736.75892 11.90291,11.90291 0 0 1 156.86677,739.3374 11.90291,11.90291 0 0 1 160.97658,745.67693 C 164.11267,746.2971 167.12254,747.29178 169.9353,748.58823 174.75557,750.76262 180.20543,752.03682 185.82573,752.03682 187.01066,752.03682 188.18592,751.97755 189.34957,751.86864 L 294.94323,618.75795 238.46191,603.01002 C 236.83908,602.6008 235.27824,602.40415 233.78559,602.37802 223.3371,602.19509 216.22068,610.3793 214.42887,612.68042 214.13633,613.05612 213.9854,613.27525 213.9854,613.27525 L 194.39234,637.97482 145.39418,599.10469 Z M 217.064,651.54612 A 11.90291,11.90291 0 0 1 224.46395,654.1246 11.90291,11.90291 0 0 1 226.39184,670.84709 11.90291,11.90291 0 0 1 209.66935,672.77497 11.90291,11.90291 0 0 1 207.74147,656.0516 11.90291,11.90291 0 0 1 217.064,651.54612 Z M 183.26585,694.15252 A 11.90291,11.90291 0 0 1 190.6658,696.731 11.90291,11.90291 0 0 1 192.5928,713.45349 11.90291,11.90291 0 0 1 175.87032,715.38048 11.90291,11.90291 0 0 1 173.94243,698.658 11.90291,11.90291 0 0 1 183.26585,694.15252 Z"
       id="path4259"
       inkscape:connector-curvature="0" />
    <path
       style="fill:#003380"
       d="M 161.41016,198.40039 C 155.5516,198.40039 149.98216,199.75266 144.98633,202.04492 140.18862,204.21931 134.73859,205.49414 129.0957,205.49414 123.4754,205.49414 118.02535,204.21931 113.20508,202.04492 109.63658,200.40014 105.74978,199.25102 101.69141,198.72656 A 159.60411,159.60411 0 0 0 131.29492,229.25391 C 136.15073,228.97427 140.81478,227.78123 144.98633,225.89062 149.98216,223.59836 155.5516,222.24609 161.41016,222.24609 167.23111,222.24609 172.79373,223.59836 177.75195,225.89062 182.61485,228.06501 188.03876,229.31836 193.68164,229.31836 199.34709,229.31836 204.73335,228.06501 209.59375,225.89062 214.5319,223.59836 220.13717,222.24609 225.93555,222.24609 231.79411,222.24609 237.35964,223.59836 242.35547,225.89062 245.88606,227.4899 249.75566,228.58982 253.79297,229.06055 L 253.79297,229.31836 C 254.14566,229.31836 254.49885,229.3144 254.84961,229.30469 255.2355,229.294 255.62055,229.27615 256.00391,229.25391 256.7343,229.29637 257.46891,229.31836 258.20703,229.31836 L 258.20703,229.06055 C 262.25193,228.59042 266.12083,227.4911 269.68359,225.89062 274.63678,223.59836 280.241,222.24609 286.06445,222.24609 291.88791,222.24609 297.48817,223.59836 302.40625,225.89062 307.2842,228.06501 312.69005,229.31836 318.37305,229.31836 318.72448,229.31836 319.07598,229.3144 319.42578,229.30469 323.58085,229.18928 327.60898,228.38519 331.35156,227.04688 A 159.60411,159.60411 0 0 0 357.83203,199.10547 C 355.48754,198.65465 353.07802,198.40039 350.62305,198.40039 350.25815,198.40039 349.89421,198.40751 349.53125,198.41797 344.08685,198.57488 338.87366,199.89593 334.24414,202.04492 329.72514,204.08341 324.67274,205.33059 319.42578,205.47852 319.07598,205.48838 318.72448,205.49414 318.37305,205.49414 312.69506,205.49414 307.2842,204.21931 302.40625,202.04492 297.48817,199.75266 291.88039,198.40039 286.06445,198.40039 280.24602,198.40039 274.64431,199.75266 269.68359,202.04492 265.47859,203.9339 260.84739,205.14277 256.00391,205.42773 251.17028,205.14275 246.52556,203.93388 242.35547,202.04492 237.35964,199.75266 231.79411,198.40039 225.93555,198.40039 220.13467,198.40039 214.5319,199.75266 209.59375,202.04492 204.73084,204.21931 199.34709,205.49414 193.68164,205.49414 188.03876,205.49414 182.61235,204.21931 177.75195,202.04492 172.79373,199.75266 167.22609,198.40039 161.41016,198.40039 Z"
       transform="translate(-8.7649541,588.29331)"
       id="path4243"
       inkscape:connector-curvature="0" />
  </g>
</svg>
