<?xml version="1.0" encoding="UTF-8" standalone="no"?>
<!-- Created with Inkscape (http://www.inkscape.org/) -->

<svg
   xmlns:dc="http://purl.org/dc/elements/1.1/"
   xmlns:cc="http://creativecommons.org/ns#"
   xmlns:rdf="http://www.w3.org/1999/02/22-rdf-syntax-ns#"
   xmlns:svg="http://www.w3.org/2000/svg"
   xmlns="http://www.w3.org/2000/svg"
   xmlns:sodipodi="http://sodipodi.sourceforge.net/DTD/sodipodi-0.dtd"
   xmlns:inkscape="http://www.inkscape.org/namespaces/inkscape"
   width="144.49777mm"
   height="101.07419mm"
   viewBox="0 0 511.99996 358.13689"
   id="svg2"
   version="1.1"
   inkscape:version="0.91 r13725"
   sodipodi:docname="logo.svg">
  <defs
     id="defs4" />
  <sodipodi:namedview
     id="base"
     pagecolor="#ffffff"
     bordercolor="#666666"
     borderopacity="1.0"
     inkscape:pageopacity="0.0"
     inkscape:pageshadow="2"
     inkscape:zoom="0.35"
     inkscape:cx="151.55699"
     inkscape:cy="215.39335"
     inkscape:document-units="px"
     inkscape:current-layer="layer1"
     showgrid="false"
     fit-margin-top="0"
     fit-margin-left="0"
     fit-margin-right="0"
     fit-margin-bottom="0"
     inkscape:window-width="1366"
     inkscape:window-height="705"
     inkscape:window-x="-8"
     inkscape:window-y="-8"
     inkscape:window-maximized="1" />
  <metadata
     id="metadata7">
    <rdf:RDF>
      <cc:Work
         rdf:about="">
        <dc:format>image/svg+xml</dc:format>
        <dc:type
           rdf:resource="http://purl.org/dc/dcmitype/StillImage" />
        <dc:title></dc:title>
      </cc:Work>
    </rdf:RDF>
  </metadata>
  <g
     inkscape:label="Layer 1"
     inkscape:groupmode="layer"
     id="layer1"
     transform="translate(8.7649541,-588.29331)">
    <g
       id="g4159"
       transform="matrix(0.45320307,0,0,0.45320307,-4.79265,517.50512)">
      <g
         transform="translate(-13.622376,0)"
         id="g4358">
        <path
           d="M 76.0625,521.9707 C 63.224025,521.9707 50.865829,524.95381 39.919922,530.01172 29.239639,534.80955 17.30853,537.62109 4.8574219,537.62109 L 4.8574219,590.19141 C 17.30853,590.19141 29.239639,587.42477 39.919922,582.62695 50.849228,577.56903 63.212957,574.58594 76.0625,574.58594 88.912043,574.58594 101.26926,577.56903 112.12109,582.62695 122.88438,587.42477 134.81387,590.19141 147.35352,590.19141 159.76036,590.19141 171.73508,587.42477 182.37109,582.62695 193.26719,577.56903 205.63092,574.58594 218.51367,574.58594 231.34661,574.58594 243.67486,577.56903 254.64844,582.62695 265.28445,587.42477 277.30964,590.19141 289.71094,590.19141 302.16205,590.19141 314.18723,587.42477 324.77344,582.62695 335.79682,577.56903 348.08275,574.58594 361.00977,574.58594 373.85378,574.58594 386.12798,577.56903 397.06836,582.62695 407.79844,587.42477 419.76764,590.19141 432.21875,590.19141 444.71966,590.19141 456.60553,587.42477 467.33008,582.62695 478.22618,577.56903 490.59446,574.58594 503.38867,574.58594 516.31568,574.58594 528.59576,577.56903 539.61914,582.62695 547.40945,586.15579 555.94901,588.58048 564.85742,589.61914 L 564.85742,590.19141 C 565.63562,590.19141 566.41159,590.18159 567.18555,590.16016 568.03702,590.13657 568.88654,590.09595 569.73242,590.04688 571.34405,590.14057 572.96509,590.19141 574.59375,590.19141 L 574.59375,589.62109 C 583.5189,588.58374 592.05863,586.15842 599.91992,582.62695 610.84923,577.56903 623.21296,574.58594 636.0625,574.58594 648.91205,574.58594 661.26926,577.56903 672.12109,582.62695 682.88438,587.42477 694.81387,590.19141 707.35352,590.19141 708.12894,590.19141 708.90395,590.18159 709.67578,590.16016 721.25329,589.8386 732.39983,587.12491 742.37109,582.62695 752.58619,577.88515 764.09036,574.96731 776.10352,574.62109 776.90439,574.59801 777.7085,574.58594 778.51367,574.58594 791.34661,574.58594 803.67486,577.56903 814.64844,582.62695 825.28445,587.42477 837.30964,590.19141 849.71094,590.19141 850.48913,590.19141 851.2664,590.18159 852.04102,590.16016 863.66029,589.8386 874.84887,587.12491 884.77344,582.62695 895.10786,577.88515 906.55216,574.96731 918.59375,574.62109 919.39652,574.59801 920.20183,574.58594 921.00977,574.58594 933.85378,574.58594 946.12798,577.56903 957.06836,582.62695 967.79844,587.42477 979.76768,590.19141 992.21875,590.19141 993.00006,590.19141 993.77831,590.18159 994.55469,590.16016 1006.2003,589.8386 1017.2758,587.12491 1027.3301,582.62695 1037.5452,577.88515 1049.0553,574.96731 1060.9961,574.62109 1061.7921,574.59801 1062.589,574.58594 1063.3887,574.58594 1076.3157,574.58594 1088.5957,577.56903 1099.6191,582.62695 1110.2109,587.42477 1122.187,590.19141 1134.5938,590.19141 L 1134.5938,537.62109 C 1122.187,537.62109 1110.2109,534.80955 1099.6191,530.01172 1088.5957,524.95381 1076.3157,521.9707 1063.3887,521.9707 1062.5887,521.9707 1061.7905,521.98278 1060.9941,522.00586 1049.0493,522.35208 1037.5452,525.26993 1027.3301,530.01172 1017.2706,534.50968 1006.1997,537.26147 994.55469,537.58789 993.77835,537.60965 993.00006,537.62109 992.21875,537.62109 979.76768,537.62109 967.79291,534.80955 957.06836,530.01172 946.12798,524.95381 933.84271,521.9707 921.00977,521.9707 920.20183,521.9707 919.39652,521.98278 918.59375,522.00586 906.55216,522.35208 895.10786,525.26993 884.77344,530.01172 874.84887,534.50968 863.66029,537.26147 852.04102,537.58789 851.2664,537.60965 850.48913,537.62109 849.71094,537.62109 837.30964,537.62109 825.28445,534.80955 814.64844,530.01172 803.67486,524.95381 791.34661,521.9707 778.51367,521.9707 777.7085,521.9707 776.90439,521.98278 776.10352,522.00586 764.09036,522.35208 752.58619,525.26993 742.37109,530.01172 732.39983,534.50968 721.25329,537.26147 709.67578,537.58789 708.90395,537.60965 708.12894,537.62109 707.35352,537.62109 694.82494,537.62109 682.88438,534.80955 672.12109,530.01172 661.26926,524.95381 648.89545,521.9707 636.0625,521.9707 623.22403,521.9707 610.86583,524.95381 599.91992,530.01172 590.64153,534.17979 580.41963,536.84583 569.73242,537.47461 559.06693,536.84579 548.82051,534.17974 539.61914,530.01172 528.59576,524.95381 516.31568,521.9707 503.38867,521.9707 490.58893,521.9707 478.22618,524.95381 467.33008,530.01172 456.59999,534.80955 444.71966,537.62109 432.21875,537.62109 419.76764,537.62109 407.79291,534.80955 397.06836,530.01172 386.12798,524.95381 373.84271,521.9707 361.00977,521.9707 348.08275,521.9707 335.79682,524.95381 324.77344,530.01172 314.18723,534.80955 302.16205,537.62109 289.71094,537.62109 277.30964,537.62109 265.28445,534.80955 254.64844,530.01172 243.67486,524.95381 231.34661,521.9707 218.51367,521.9707 205.63092,521.9707 193.26719,524.95381 182.37109,530.01172 171.73508,534.80955 159.76036,537.62109 147.35352,537.62109 134.82494,537.62109 122.88438,534.80955 112.12109,530.01172 101.26926,524.95381 88.895442,521.9707 76.0625,521.9707 Z"
           id="path4147"
           inkscape:connector-curvature="0"
           style="fill:#0044aa" />
        <path
           style="fill:#333333;fill-opacity:1;stroke:none"
           d="M 182.54883,156.19531 114.74805,241.66406 125.82617,250.45312 193.62695,164.98438 182.54883,156.19531 Z"
           id="path4263"
           inkscape:connector-curvature="0" />
        <path
           style="fill:#aa0000;fill-opacity:1;stroke:none"
           d="M 605.67578,176.96094 343.80664,507.0625 C 352.96772,503.74281 362.84425,501.84961 373.13086,501.84961 385.9638,501.84961 398.24907,504.83076 409.18945,509.88867 419.914,514.6865 431.88873,517.49805 444.33984,517.49805 456.84075,517.49805 468.72303,514.6865 479.45312,509.88867 487.6839,506.06799 496.75216,503.43582 506.21289,502.375 L 612.27734,368.66992 611.92188,368.38867 C 613.00266,366.6185 613.99348,364.79813 615.08008,363.01172 617.9275,357.26748 621.3997,351.91183 623.26758,345.66602 623.30483,345.4766 623.36089,345.34376 623.36719,345.19336 637.10612,298.31205 625.73412,239.46422 614.33984,199.28906 L 605.67578,176.96094 Z"
           id="path4261"
           inkscape:connector-curvature="0" />
        <path
           style="fill:#666666;fill-opacity:1;stroke:none"
           d="M 212.62109,180.05078 144.82031,265.51953 252.93555,351.28711 229.08008,381.35938 132.04297,304.38281 101.91016,342.36914 198.94531,419.3457 126.38867,510.8125 C 136.58452,515.0454 147.77492,517.49805 159.47656,517.49805 171.8834,517.49805 183.85813,514.6865 194.49414,509.88867 194.78521,509.75356 195.08185,509.62627 195.375,509.49414 A 26.263965,26.263965 0 0 1 201.03516,493.72852 26.263965,26.263965 0 0 1 221.60742,483.78711 26.263965,26.263965 0 0 1 237.93555,489.47656 26.263965,26.263965 0 0 1 247.00391,503.46484 C 253.92374,504.83325 260.56508,507.02803 266.77148,509.88867 277.40749,514.6865 289.43268,517.49805 301.83398,517.49805 304.44853,517.49805 307.04177,517.36726 309.60938,517.12695 L 542.60352,223.41602 417.97656,188.66797 C 414.39577,187.76502 410.95174,187.3311 407.6582,187.27344 384.60343,186.86981 368.90093,204.92839 364.94727,210.00586 364.30177,210.83484 363.96875,211.31836 363.96875,211.31836 L 320.73633,265.81836 212.62109,180.05078 Z M 370.76172,295.76367 A 26.263965,26.263965 0 0 1 387.08984,301.45312 26.263965,26.263965 0 0 1 391.34375,338.35156 26.263965,26.263965 0 0 1 354.44531,342.60547 26.263965,26.263965 0 0 1 350.19141,305.70508 26.263965,26.263965 0 0 1 370.76172,295.76367 Z M 296.18555,389.77539 A 26.263965,26.263965 0 0 1 312.51367,395.46484 26.263965,26.263965 0 0 1 316.76562,432.36328 26.263965,26.263965 0 0 1 279.86719,436.61523 26.263965,26.263965 0 0 1 275.61328,399.7168 26.263965,26.263965 0 0 1 296.18555,389.77539 Z"
           id="path4259"
           inkscape:connector-curvature="0" />
        <path
           id="path4243"
           d="M 76.0625,593.9707 C 63.224025,593.9707 50.865829,596.95381 39.919922,602.01172 29.239639,606.80955 17.30853,609.62109 4.8574219,609.62109 L 4.8574219,662.19141 C 17.30853,662.19141 29.239639,659.42477 39.919922,654.62695 50.849228,649.56903 63.212957,646.58594 76.0625,646.58594 88.912043,646.58594 101.26926,649.56903 112.12109,654.62695 122.88438,659.42477 134.81387,662.19141 147.35352,662.19141 159.76036,662.19141 171.73508,659.42477 182.37109,654.62695 193.26719,649.56903 205.63092,646.58594 218.51367,646.58594 231.34661,646.58594 243.67486,649.56903 254.64844,654.62695 265.28445,659.42477 277.30964,662.19141 289.71094,662.19141 302.16205,662.19141 314.18723,659.42477 324.77344,654.62695 335.79682,649.56903 348.08275,646.58594 361.00977,646.58594 373.85378,646.58594 386.12798,649.56903 397.06836,654.62695 407.79844,659.42477 419.76764,662.19141 432.21875,662.19141 444.71966,662.19141 456.60553,659.42477 467.33008,654.62695 478.22618,649.56903 490.59446,646.58594 503.38867,646.58594 516.31568,646.58594 528.59576,649.56903 539.61914,654.62695 547.40945,658.15579 555.94901,660.58048 564.85742,661.61914 L 564.85742,662.19141 C 565.63562,662.19141 566.41159,662.18159 567.18555,662.16016 568.03702,662.13657 568.88654,662.09595 569.73242,662.04688 571.34405,662.14057 572.96509,662.19141 574.59375,662.19141 L 574.59375,661.62109 C 583.5189,660.58374 592.05863,658.15842 599.91992,654.62695 610.84923,649.56903 623.21296,646.58594 636.0625,646.58594 648.91205,646.58594 661.26926,649.56903 672.12109,654.62695 682.88438,659.42477 694.81387,662.19141 707.35352,662.19141 708.12894,662.19141 708.90395,662.18159 709.67578,662.16016 721.25329,661.8386 732.39983,659.12491 742.37109,654.62695 752.58619,649.88515 764.09036,646.96731 776.10352,646.62109 776.90439,646.59801 777.7085,646.58594 778.51367,646.58594 791.34661,646.58594 803.67486,649.56903 814.64844,654.62695 825.28445,659.42477 837.30964,662.19141 849.71094,662.19141 850.48913,662.19141 851.2664,662.18159 852.04102,662.16016 863.66029,661.8386 874.84887,659.12491 884.77344,654.62695 895.10786,649.88515 906.55216,646.96731 918.59375,646.62109 919.39652,646.59801 920.20183,646.58594 921.00977,646.58594 933.85378,646.58594 946.12798,649.56903 957.06836,654.62695 967.79844,659.42477 979.76768,662.19141 992.21875,662.19141 993.00006,662.19141 993.77831,662.18159 994.55469,662.16016 1006.2003,661.8386 1017.2758,659.12491 1027.3301,654.62695 1037.5452,649.88515 1049.0553,646.96731 1060.9961,646.62109 1061.7921,646.59801 1062.589,646.58594 1063.3887,646.58594 1076.3157,646.58594 1088.5957,649.56903 1099.6191,654.62695 1110.2109,659.42477 1122.187,662.19141 1134.5938,662.19141 L 1134.5938,609.62109 C 1122.187,609.62109 1110.2109,606.80955 1099.6191,602.01172 1088.5957,596.95381 1076.3157,593.9707 1063.3887,593.9707 1062.5887,593.9707 1061.7905,593.98278 1060.9941,594.00586 1049.0493,594.35208 1037.5452,597.26993 1027.3301,602.01172 1017.2706,606.50968 1006.1997,609.26147 994.55469,609.58789 993.77835,609.60965 993.00006,609.62109 992.21875,609.62109 979.76768,609.62109 967.79291,606.80955 957.06836,602.01172 946.12798,596.95381 933.84271,593.9707 921.00977,593.9707 920.20183,593.9707 919.39652,593.98278 918.59375,594.00586 906.55216,594.35208 895.10786,597.26993 884.77344,602.01172 874.84887,606.50968 863.66029,609.26147 852.04102,609.58789 851.2664,609.60965 850.48913,609.62109 849.71094,609.62109 837.30964,609.62109 825.28445,606.80955 814.64844,602.01172 803.67486,596.95381 791.34661,593.9707 778.51367,593.9707 777.7085,593.9707 776.90439,593.98278 776.10352,594.00586 764.09036,594.35208 752.58619,597.26993 742.37109,602.01172 732.39983,606.50968 721.25329,609.26147 709.67578,609.58789 708.90395,609.60965 708.12894,609.62109 707.35352,609.62109 694.82494,609.62109 682.88438,606.80955 672.12109,602.01172 661.26926,596.95381 648.89545,593.9707 636.0625,593.9707 623.22403,593.9707 610.86583,596.95381 599.91992,602.01172 590.64153,606.17979 580.41963,608.84583 569.73242,609.47461 559.06693,608.84579 548.82051,606.17974 539.61914,602.01172 528.59576,596.95381 516.31568,593.9707 503.38867,593.9707 490.58893,593.9707 478.22618,596.95381 467.33008,602.01172 456.59999,606.80955 444.71966,609.62109 432.21875,609.62109 419.76764,609.62109 407.79291,606.80955 397.06836,602.01172 386.12798,596.95381 373.84271,593.9707 361.00977,593.9707 348.08275,593.9707 335.79682,596.95381 324.77344,602.01172 314.18723,606.80955 302.16205,609.62109 289.71094,609.62109 277.30964,609.62109 265.28445,606.80955 254.64844,602.01172 243.67486,596.95381 231.34661,593.9707 218.51367,593.9707 205.63092,593.9707 193.26719,596.95381 182.37109,602.01172 171.73508,606.80955 159.76036,609.62109 147.35352,609.62109 134.82494,609.62109 122.88438,606.80955 112.12109,602.01172 101.26926,596.95381 88.895442,593.9707 76.0625,593.9707 Z"
           inkscape:connector-curvature="0"
           style="fill:#003380" />
        <path
           style="fill:#aaccff;fill-rule:evenodd;stroke:none;stroke-width:1px;stroke-linecap:butt;stroke-linejoin:miter;stroke-opacity:1"
           d="M 909.71484,232.36133 804,260.93359 772.57227,323.79102 692.57227,386.64844 633.54883,502.00977 C 634.38486,501.98445 635.22209,501.9707 636.0625,501.9707 648.89545,501.9707 661.26926,504.95381 672.12109,510.01172 682.88438,514.80955 694.82494,517.62109 707.35352,517.62109 708.12894,517.62109 708.90395,517.60965 709.67578,517.58789 721.25329,517.26147 732.39983,514.50968 742.37109,510.01172 752.58619,505.26993 764.09036,502.35208 776.10352,502.00586 776.90439,501.98278 777.7085,501.9707 778.51367,501.9707 791.34661,501.9707 803.67486,504.95381 814.64844,510.01172 825.28445,514.80955 837.30964,517.62109 849.71094,517.62109 850.48913,517.62109 851.2664,517.60965 852.04102,517.58789 863.66029,517.26147 874.84887,514.50968 884.77344,510.01172 895.10786,505.26993 906.55216,502.35208 918.59375,502.00586 919.39652,501.98278 920.20183,501.9707 921.00977,501.9707 933.84271,501.9707 946.12798,504.95381 957.06836,510.01172 967.79291,514.80955 979.76773,517.62109 992.2188,517.62109 993.0001,517.62109 993.7784,517.60965 994.5547,517.58789 1006.1997,517.26147 1017.2706,514.50968 1027.3301,510.01172 1037.5452,505.26993 1049.0493,502.35208 1060.9941,502.00586 1061.7905,501.98278 1062.5887,501.9707 1063.3887,501.9707 1069.9003,501.9707 1076.2462,502.72919 1082.3516,504.12695 L 1035.4277,432.36133 1035.4277,352.36133 975.42773,269.50586 909.71484,232.36133 Z"
           id="path4294"
           inkscape:connector-curvature="0" />
      </g>
      <g
         transform="translate(-25.714286,-34.285714)"
         id="g4338">
        <g
           style="font-style:normal;font-weight:normal;font-size:40px;line-height:125%;font-family:sans-serif;letter-spacing:0px;word-spacing:0px;fill:#00002b;fill-opacity:1;stroke:none;stroke-width:1px;stroke-linecap:butt;stroke-linejoin:miter;stroke-opacity:1"
           id="text4296"
           transform="matrix(1.3793163,0,0,1.3793163,381.83821,-453.4558)">
          <path
             d="M 47.455078,880.56476 41.361328,895.95538 Q 40.833984,897.12726 40.833984,897.43976 40.833984,898.3382 42.279297,898.70929 L 42.279297,899.33429 33.705078,899.33429 33.705078,898.70929 Q 35.013672,898.45538 35.013672,897.38116 35.013672,897.0882 34.466797,895.64288 L 26.830078,875.97491 Q 26.263672,874.51007 25.794922,874.00226 25.345703,873.47491 24.466797,873.29913 L 24.466797,872.67413 33.724609,872.67413 33.724609,873.29913 Q 32.494141,873.57257 32.494141,874.45148 32.494141,874.9007 32.806641,875.74054 L 38.080078,889.8421 43.783203,875.66241 Q 44.154297,874.74445 44.154297,874.45148 44.154297,873.55304 42.845703,873.29913 L 42.845703,872.67413 52.533203,872.67413 52.533203,873.29913 Q 51.205078,873.6507 51.205078,874.56866 51.205078,874.88116 51.537109,875.74054 L 56.966797,889.9007 62.220703,875.97491 Q 62.630859,874.93976 62.630859,874.43195 62.630859,873.57257 61.224609,873.29913 L 61.224609,872.67413 70.384766,872.67413 70.384766,873.29913 Q 69.408203,873.57257 69.037109,874.00226 68.666016,874.43195 68.060547,875.97491 L 60.423828,895.64288 Q 59.876953,897.04913 59.876953,897.51788 59.876953,898.47491 61.263672,898.70929 L 61.263672,899.33429 52.572266,899.33429 52.572266,898.70929 Q 53.939453,898.49445 53.939453,897.4007 53.939453,897.0296 53.333984,895.64288 L 47.455078,880.56476 Z"
             style="font-style:normal;font-variant:normal;font-weight:normal;font-stretch:normal;font-family:'Copperplate Gothic Bold';-inkscape-font-specification:'Copperplate Gothic Bold, ';fill:#00002b"
             id="path4322"
             inkscape:connector-curvature="0" />
          <path
             d="M 82.435547,876.99054 Q 87.650391,876.99054 91.126953,879.64679 95.287109,882.84991 95.287109,888.57257 95.287109,893.94366 91.126953,897.14679 87.689453,899.80304 82.474609,899.80304 77.259766,899.80304 73.822266,897.14679 69.642578,893.94366 69.642578,888.39679 69.642578,882.79132 73.822266,879.64679 77.279297,877.04913 82.435547,876.99054 Z M 82.455078,881.13116 Q 79.076172,881.13116 76.947266,883.29913 74.974609,885.33038 74.974609,888.39679 74.974609,891.44366 76.947266,893.47491 79.076172,895.66241 82.474609,895.66241 85.853516,895.66241 87.982422,893.47491 89.955078,891.4632 89.955078,888.49445 89.955078,885.27179 87.982422,883.29913 85.833984,881.17023 82.455078,881.13116 Z"
             style="font-style:normal;font-variant:normal;font-weight:normal;font-stretch:normal;font-family:'Copperplate Gothic Bold';-inkscape-font-specification:'Copperplate Gothic Bold, ';fill:#00002b"
             id="path4324"
             inkscape:connector-curvature="0" />
          <path
             d="M 121.5957,879.45148 121.5957,891.03351 Q 121.5957,894.99835 120.0332,896.85382 117.51367,899.80304 110.54102,899.80304 105.87305,899.80304 103.00195,898.37726 100.93164,897.3421 100.16992,895.42804 99.466797,893.67023 99.466797,891.03351 L 99.466797,879.45148 Q 99.466797,878.84601 99.193359,878.53351 98.919922,878.22101 98.216797,878.00616 L 98.216797,877.45929 105.9707,877.45929 105.9707,878.00616 Q 105.24805,878.20148 104.97461,878.53351 104.70117,878.84601 104.70117,879.45148 L 104.70117,889.97882 Q 104.70117,891.81476 105.01367,892.79132 105.3457,893.76788 106.14648,894.39288 107.74805,895.66241 110.77539,895.66241 113.80273,895.66241 115.4043,894.39288 116.18555,893.76788 116.49805,892.79132 116.81055,891.81476 116.81055,889.97882 L 116.81055,879.45148 Q 116.81055,878.84601 116.53711,878.53351 116.2832,878.22101 115.56055,878.00616 L 115.56055,877.45929 122.8457,877.45929 122.8457,878.00616 Q 122.14258,878.20148 121.86914,878.53351 121.5957,878.84601 121.5957,879.45148 Z"
             style="font-style:normal;font-variant:normal;font-weight:normal;font-stretch:normal;font-family:'Copperplate Gothic Bold';-inkscape-font-specification:'Copperplate Gothic Bold, ';fill:#00002b"
             id="path4326"
             inkscape:connector-curvature="0" />
          <path
             d="M 132.78711,895.36945 145.0332,895.36945 Q 145.6582,895.36945 145.9707,895.09601 146.2832,894.82257 146.49805,894.09991 L 147.02539,894.09991 147.02539,900.58429 146.49805,900.58429 Q 146.30273,899.88116 145.9707,899.60773 145.6582,899.33429 145.0332,899.33429 L 126.30273,899.33429 126.30273,898.78741 Q 126.98633,898.61163 127.25977,898.2796 127.55273,897.94757 127.55273,897.3421 L 127.55273,879.45148 Q 127.55273,878.84601 127.2793,878.53351 127.00586,878.22101 126.30273,878.00616 L 126.30273,877.45929 134.03711,877.45929 134.03711,878.00616 Q 133.33398,878.20148 133.06055,878.53351 132.78711,878.84601 132.78711,879.45148 L 132.78711,895.36945 Z"
             style="font-style:normal;font-variant:normal;font-weight:normal;font-stretch:normal;font-family:'Copperplate Gothic Bold';-inkscape-font-specification:'Copperplate Gothic Bold, ';fill:#00002b"
             id="path4328"
             inkscape:connector-curvature="0" />
          <path
             d="M 150.52148,897.3421 150.52148,879.45148 Q 150.52148,878.84601 150.24805,878.53351 149.97461,878.22101 149.27148,878.00616 L 149.27148,877.45929 162.10352,877.45929 Q 166.10742,877.45929 168.41211,878.45538 171.6543,879.86163 173.08008,883.10382 174.07617,885.36945 174.07617,888.39679 174.07617,894.00226 170.73633,896.89288 169.23242,898.18195 167.18164,898.76788 165.15039,899.33429 162.10352,899.33429 L 149.27148,899.33429 149.27148,898.78741 Q 149.95508,898.61163 150.22852,898.2796 150.52148,897.94757 150.52148,897.3421 Z M 155.75586,895.36945 161.3418,895.36945 Q 165.18945,895.36945 166.92773,893.61163 168.74414,891.7757 168.74414,888.39679 168.74414,885.01788 166.92773,883.18195 166.0293,882.26398 164.70117,881.85382 163.37305,881.42413 161.3418,881.42413 L 155.75586,881.42413 155.75586,895.36945 Z"
             style="font-style:normal;font-variant:normal;font-weight:normal;font-stretch:normal;font-family:'Copperplate Gothic Bold';-inkscape-font-specification:'Copperplate Gothic Bold, ';fill:#00002b"
             id="path4330"
             inkscape:connector-curvature="0" />
          <path
             d="M 202.65039,888.18195 202.65039,897.28351 Q 202.65039,897.88898 202.92383,898.20148 203.2168,898.51398 203.91992,898.70929 L 203.91992,899.33429 195.54102,899.33429 195.54102,898.70929 Q 196.24414,898.51398 196.53711,898.20148 196.83008,897.88898 196.83008,897.28351 L 196.83008,888.18195 188.2168,876.05304 Q 187.10352,874.49054 186.45898,873.9632 185.83398,873.41632 184.95508,873.29913 L 184.95508,872.67413 195.48242,872.67413 195.48242,873.29913 Q 194.17383,873.51398 194.17383,874.51007 194.17383,874.86163 194.97461,876.05304 L 199.7793,883.20148 204.7207,876.05304 Q 205.52148,874.9007 205.52148,874.49054 205.52148,874.04132 205.16992,873.72882 204.81836,873.39679 204.21289,873.29913 L 204.21289,872.67413 214.52539,872.67413 214.52539,873.29913 Q 213.64648,873.41632 213.00195,873.9632 212.37695,874.49054 211.26367,876.05304 L 202.65039,888.18195 Z"
             style="font-style:normal;font-variant:normal;font-weight:normal;font-stretch:normal;font-family:'Copperplate Gothic Bold';-inkscape-font-specification:'Copperplate Gothic Bold, ';fill:#00002b"
             id="path4332"
             inkscape:connector-curvature="0" />
          <path
             d="M 225.05273,876.99054 Q 230.26758,876.99054 233.74414,879.64679 237.9043,882.84991 237.9043,888.57257 237.9043,893.94366 233.74414,897.14679 230.30664,899.80304 225.0918,899.80304 219.87695,899.80304 216.43945,897.14679 212.25977,893.94366 212.25977,888.39679 212.25977,882.79132 216.43945,879.64679 219.89648,877.04913 225.05273,876.99054 Z M 225.07227,881.13116 Q 221.69336,881.13116 219.56445,883.29913 217.5918,885.33038 217.5918,888.39679 217.5918,891.44366 219.56445,893.47491 221.69336,895.66241 225.0918,895.66241 228.4707,895.66241 230.59961,893.47491 232.57227,891.4632 232.57227,888.49445 232.57227,885.27179 230.59961,883.29913 228.45117,881.17023 225.07227,881.13116 Z"
             style="font-style:normal;font-variant:normal;font-weight:normal;font-stretch:normal;font-family:'Copperplate Gothic Bold';-inkscape-font-specification:'Copperplate Gothic Bold, ';fill:#00002b"
             id="path4334"
             inkscape:connector-curvature="0" />
          <path
             d="M 264.25195,879.45148 264.25195,891.03351 Q 264.25195,894.99835 262.68945,896.85382 260.16992,899.80304 253.19727,899.80304 248.5293,899.80304 245.6582,898.37726 243.58789,897.3421 242.82617,895.42804 242.12305,893.67023 242.12305,891.03351 L 242.12305,879.45148 Q 242.12305,878.84601 241.84961,878.53351 241.57617,878.22101 240.87305,878.00616 L 240.87305,877.45929 248.62695,877.45929 248.62695,878.00616 Q 247.9043,878.20148 247.63086,878.53351 247.35742,878.84601 247.35742,879.45148 L 247.35742,889.97882 Q 247.35742,891.81476 247.66992,892.79132 248.00195,893.76788 248.80273,894.39288 250.4043,895.66241 253.43164,895.66241 256.45898,895.66241 258.06055,894.39288 258.8418,893.76788 259.1543,892.79132 259.4668,891.81476 259.4668,889.97882 L 259.4668,879.45148 Q 259.4668,878.84601 259.19336,878.53351 258.93945,878.22101 258.2168,878.00616 L 258.2168,877.45929 265.50195,877.45929 265.50195,878.00616 Q 264.79883,878.20148 264.52539,878.53351 264.25195,878.84601 264.25195,879.45148 Z"
             style="font-style:normal;font-variant:normal;font-weight:normal;font-stretch:normal;font-family:'Copperplate Gothic Bold';-inkscape-font-specification:'Copperplate Gothic Bold, ';fill:#00002b"
             id="path4336"
             inkscape:connector-curvature="0" />
        </g>
        <g
           style="font-style:normal;font-weight:normal;font-size:40px;line-height:125%;font-family:sans-serif;letter-spacing:0px;word-spacing:0px;fill:#00002b;fill-opacity:1;stroke:none;stroke-width:1px;stroke-linecap:butt;stroke-linejoin:miter;stroke-opacity:1"
           id="text4300"
           transform="matrix(5.121476,0,0,5.121476,118.89268,-4685.1653)">
          <path
             d="M 9.2073097,1080.6344 6.023716,1086.9039 5.476841,1086.5914 Q 5.4963722,1086.3961 5.4963722,1086.2789 5.4963722,1085.6149 4.3635597,1084.8531 0.88699722,1082.4313 -3.8005028,1082.4313 -5.8708153,1082.4313 -7.4528465,1082.9391 -8.6051903,1083.3297 -9.3278465,1084.111 -10.030972,1084.8922 -10.030972,1085.8102 -10.030972,1087.3141 -8.2145653,1087.861 -7.2770653,1088.1344 -4.1911278,1088.4469 L -1.1247215,1088.7594 Q 1.6096535,1089.0524 3.289341,1089.5602 4.9885597,1090.068 6.2971535,1090.986 7.6252785,1091.943 8.3869972,1093.5055 9.1682472,1095.068 9.1682472,1096.8453 9.1682472,1099.6578 7.351841,1101.8453 5.711216,1103.8375 2.2541847,1104.7946 -0.32394028,1105.5172 -3.273159,1105.5172 -8.5661278,1105.5172 -13.722378,1102.9781 -14.816128,1102.4703 -15.030972,1102.4703 -15.284878,1102.4703 -15.831753,1102.9 L -16.398159,1102.6071 -13.507534,1096.0641 -12.941128,1096.3375 Q -12.941128,1096.5133 -12.941128,1096.5914 -12.941128,1097.4703 -12.101284,1098.2125 -10.831753,1099.3453 -8.1755028,1100.1656 -5.5192528,1100.986 -3.1364403,1100.986 -0.53878403,1100.986 1.2971535,1100.1071 2.3127785,1099.6188 2.9182472,1098.818 3.523716,1097.9977 3.523716,1097.1188 3.523716,1095.7906 2.0979347,1095.2242 1.101841,1094.8336 -1.9255028,1094.5016 L -4.9333153,1094.1891 Q -7.960659,1093.8766 -9.210659,1093.6031 -10.460659,1093.3102 -11.710659,1092.6852 -13.488003,1091.8063 -14.503628,1090.0485 -15.421597,1088.4664 -15.421597,1086.4156 -15.421597,1083.0367 -13.097378,1080.8297 -10.050503,1077.9196 -3.9567528,1077.9196 -1.398159,1077.9196 0.80887222,1078.4469 3.0159035,1078.9547 6.3166847,1080.3414 7.4494972,1080.7906 7.7034035,1080.7906 8.1135597,1080.7906 8.6604347,1080.3414 L 9.2073097,1080.6344 Z"
             style="font-style:normal;font-variant:normal;font-weight:normal;font-stretch:normal;font-family:'Copperplate Gothic Bold';-inkscape-font-specification:'Copperplate Gothic Bold, ';fill:#00002b"
             id="path4305"
             inkscape:connector-curvature="0" />
          <path
             d="M 40.359653,1080.4391 40.359653,1095.3805 Q 40.359653,1099.6188 38.797153,1101.7281 35.984653,1105.5172 27.17606,1105.5172 20.808872,1105.5172 17.429966,1103.4664 15.45731,1102.275 14.695591,1100.2242 13.953403,1098.193 13.953403,1095.3805 L 13.953403,1080.4391 Q 13.953403,1079.8336 13.679966,1079.5211 13.406528,1079.2086 12.703403,1079.0133 L 12.703403,1078.3883 21.043247,1078.3883 21.043247,1079.0133 Q 20.340122,1079.1891 20.047153,1079.5211 19.773716,1079.8336 19.773716,1080.4391 L 19.773716,1093.7399 Q 19.773716,1096.0446 20.027622,1097.1578 20.281528,1098.2516 20.984653,1098.9938 22.859653,1100.986 27.390903,1100.986 31.941685,1100.986 33.816685,1098.9938 34.500278,1098.2516 34.754185,1097.1578 35.008091,1096.0446 35.008091,1093.7399 L 35.008091,1080.4391 Q 35.008091,1079.8336 34.734653,1079.5211 34.461216,1079.2086 33.758091,1079.0133 L 33.758091,1078.3883 41.609653,1078.3883 41.609653,1079.0133 Q 40.906528,1079.2086 40.633091,1079.5211 40.359653,1079.8336 40.359653,1080.4391 Z"
             style="font-style:normal;font-variant:normal;font-weight:normal;font-stretch:normal;font-family:'Copperplate Gothic Bold';-inkscape-font-specification:'Copperplate Gothic Bold, ';fill:#00002b"
             id="path4307"
             inkscape:connector-curvature="0" />
          <path
             d="M 52.95731,1094.1696 52.95731,1103.0172 Q 52.95731,1103.6031 53.230747,1103.9352 53.523716,1104.2477 54.20731,1104.4235 L 54.20731,1105.0485 45.886997,1105.0485 45.886997,1104.4235 Q 46.590122,1104.2281 46.86356,1103.9156 47.136997,1103.6031 47.136997,1103.0172 L 47.136997,1080.4391 Q 47.136997,1079.8336 46.86356,1079.5211 46.590122,1079.2086 45.886997,1079.0133 L 45.886997,1078.3883 62.566685,1078.3883 Q 65.61356,1078.3883 67.390903,1078.7399 69.187778,1079.0914 70.515903,1079.9703 72.058872,1080.986 72.820591,1082.7242 73.543247,1084.4039 73.543247,1086.318 73.543247,1092.8414 66.297153,1093.9547 L 71.472935,1101.318 Q 72.840122,1103.2516 73.465122,1103.818 74.109653,1104.3649 75.027622,1104.4235 L 75.027622,1105.0485 65.379185,1105.0485 65.379185,1104.4235 Q 66.375278,1104.2672 66.375278,1103.7203 66.375278,1103.3688 65.45731,1102.0211 L 60.066685,1094.1696 52.95731,1094.1696 Z M 52.95731,1089.775 61.941685,1089.775 Q 63.933872,1089.775 64.754185,1089.6578 65.574497,1089.5406 66.258091,1089.1696 67.742466,1088.3688 67.742466,1086.2789 67.742466,1084.1891 66.258091,1083.3883 65.554966,1082.9977 64.754185,1082.9 63.972935,1082.7828 61.941685,1082.7828 L 52.95731,1082.7828 52.95731,1089.775 Z"
             style="font-style:normal;font-variant:normal;font-weight:normal;font-stretch:normal;font-family:'Copperplate Gothic Bold';-inkscape-font-specification:'Copperplate Gothic Bold, ';fill:#00002b"
             id="path4309"
             inkscape:connector-curvature="0" />
          <path
             d="M 90.418247,1097.3141 97.48856,1081.65 Q 97.937778,1080.6539 97.937778,1080.1071 97.937778,1079.2672 96.648716,1079.0133 L 96.648716,1078.3883 105.76981,1078.3883 105.76981,1079.0133 Q 104.91043,1079.1305 104.5784,1079.5016 104.24637,1079.8727 103.42606,1081.65 L 94.187778,1101.5914 Q 93.601841,1102.861 93.601841,1103.2516 93.601841,1104.2477 94.83231,1104.4235 L 94.83231,1105.0485 85.652622,1105.0485 85.652622,1104.4235 Q 86.883091,1104.2477 86.883091,1103.2321 86.883091,1102.861 86.297153,1101.5914 L 77.058872,1081.65 Q 76.23856,1079.8727 75.906528,1079.5016 75.574497,1079.1305 74.715122,1079.0133 L 74.715122,1078.3883 84.187778,1078.3883 84.187778,1079.0133 Q 82.898716,1079.2672 82.898716,1080.1071 82.898716,1080.6539 83.347935,1081.65 L 90.418247,1097.3141 Z"
             style="font-style:normal;font-variant:normal;font-weight:normal;font-stretch:normal;font-family:'Copperplate Gothic Bold';-inkscape-font-specification:'Copperplate Gothic Bold, ';fill:#00002b"
             id="path4311"
             inkscape:connector-curvature="0" />
          <path
             d="M 109.3245,1102.9977 109.3245,1080.4196 Q 109.3245,1079.8336 109.05106,1079.5211 108.77762,1079.2086 108.0745,1079.0133 L 108.0745,1078.3883 116.39481,1078.3883 116.39481,1079.0133 Q 115.69168,1079.1891 115.41825,1079.5211 115.14481,1079.8336 115.14481,1080.4196 L 115.14481,1102.9977 Q 115.14481,1103.6031 115.41825,1103.9352 115.71122,1104.2477 116.39481,1104.4235 L 116.39481,1105.0485 108.0745,1105.0485 108.0745,1104.4235 Q 108.77762,1104.2281 109.05106,1103.9156 109.3245,1103.6031 109.3245,1102.9977 Z"
             style="font-style:normal;font-variant:normal;font-weight:normal;font-stretch:normal;font-family:'Copperplate Gothic Bold';-inkscape-font-specification:'Copperplate Gothic Bold, ';fill:#00002b"
             id="path4313"
             inkscape:connector-curvature="0" />
          <path
             d="M 134.44168,1097.3141 141.512,1081.65 Q 141.96122,1080.6539 141.96122,1080.1071 141.96122,1079.2672 140.67215,1079.0133 L 140.67215,1078.3883 149.79325,1078.3883 149.79325,1079.0133 Q 148.93387,1079.1305 148.60184,1079.5016 148.26981,1079.8727 147.4495,1081.65 L 138.21122,1101.5914 Q 137.62528,1102.861 137.62528,1103.2516 137.62528,1104.2477 138.85575,1104.4235 L 138.85575,1105.0485 129.67606,1105.0485 129.67606,1104.4235 Q 130.90653,1104.2477 130.90653,1103.2321 130.90653,1102.861 130.32059,1101.5914 L 121.08231,1081.65 Q 120.262,1079.8727 119.92997,1079.5016 119.59793,1079.1305 118.73856,1079.0133 L 118.73856,1078.3883 128.21122,1078.3883 128.21122,1079.0133 Q 126.92215,1079.2672 126.92215,1080.1071 126.92215,1080.6539 127.37137,1081.65 L 134.44168,1097.3141 Z"
             style="font-style:normal;font-variant:normal;font-weight:normal;font-stretch:normal;font-family:'Copperplate Gothic Bold';-inkscape-font-specification:'Copperplate Gothic Bold, ';fill:#00002b"
             id="path4315"
             inkscape:connector-curvature="0" />
          <path
             d="M 159.12918,1093.3492 159.12918,1100.6539 176.27762,1100.6539 Q 176.86356,1100.6539 177.17606,1100.3805 177.48856,1100.1071 177.68387,1099.4039 L 178.30887,1099.4039 178.30887,1106.2985 177.68387,1106.2985 Q 177.48856,1105.5953 177.17606,1105.3219 176.86356,1105.0485 176.27762,1105.0485 L 152.05887,1105.0485 152.05887,1104.4235 Q 152.762,1104.2281 153.03543,1103.9156 153.30887,1103.6031 153.30887,1102.9977 L 153.30887,1080.4391 Q 153.30887,1079.8336 153.03543,1079.5211 152.762,1079.2086 152.05887,1079.0133 L 152.05887,1078.3883 175.80887,1078.3883 Q 176.39481,1078.3883 176.70731,1078.1149 177.01981,1077.8219 177.21512,1077.1188 L 177.84012,1077.1188 177.84012,1084.0133 177.21512,1084.0133 Q 177.01981,1083.3297 176.70731,1083.0563 176.39481,1082.7828 175.80887,1082.7828 L 159.12918,1082.7828 159.12918,1089.111 169.9495,1089.111 Q 170.53543,1089.111 170.84793,1088.8375 171.16043,1088.5641 171.35575,1087.861 L 171.98075,1087.861 171.98075,1094.5992 171.35575,1094.5992 Q 171.16043,1093.9156 170.84793,1093.6422 170.53543,1093.3492 169.9495,1093.3492 L 159.12918,1093.3492 Z"
             style="font-style:normal;font-variant:normal;font-weight:normal;font-stretch:normal;font-family:'Copperplate Gothic Bold';-inkscape-font-specification:'Copperplate Gothic Bold, ';fill:#00002b"
             id="path4317"
             inkscape:connector-curvature="0" />
          <path
             d="M 184.20731,1085.9078 180.84793,1080.986 181.35575,1080.6344 Q 181.94168,1080.9274 182.17606,1080.9274 182.62528,1080.9274 183.85575,1080.1266 185.69168,1078.9156 187.11747,1078.4274 188.56278,1077.9196 190.22293,1077.9196 192.91825,1077.9196 194.73465,1079.1891 197.17606,1080.8883 197.17606,1083.8375 197.17606,1085.3805 196.39481,1086.7867 195.61356,1088.193 193.6995,1090.068 192.37137,1091.3766 191.96122,1092.1383 191.57059,1092.8805 191.57059,1094.0719 191.57059,1094.5992 191.80497,1094.8336 192.03934,1095.068 192.7034,1095.2438 L 192.7034,1095.8688 186.27762,1095.8688 186.27762,1095.2438 Q 187.05887,1094.9899 187.31278,1094.5992 187.56668,1094.1891 187.78153,1092.8024 187.99637,1091.5524 188.36747,1090.8297 188.75809,1090.0875 189.96903,1088.5641 191.06278,1087.1969 191.43387,1086.4547 191.8245,1085.693 191.8245,1084.8727 191.8245,1083.6031 190.98465,1082.8414 190.16434,1082.0602 188.77762,1082.0602 186.70731,1082.0602 185.24247,1083.5446 184.55887,1084.2477 184.55887,1084.8922 184.55887,1085.1071 184.73465,1085.5563 L 184.20731,1085.9078 Z M 189.81278,1099.111 Q 191.16043,1099.111 192.0784,1100.0485 193.0159,1100.986 193.0159,1102.3336 193.0159,1103.6422 192.05887,1104.5797 191.12137,1105.5172 189.81278,1105.5172 188.48465,1105.5172 187.54715,1104.5797 186.60965,1103.6227 186.60965,1102.2946 186.60965,1100.986 187.52762,1100.068 188.46512,1099.1305 189.81278,1099.111 Z"
             style="font-style:normal;font-variant:normal;font-weight:normal;font-stretch:normal;font-family:'Copperplate Gothic Bold';-inkscape-font-specification:'Copperplate Gothic Bold, ';fill:#00002b"
             id="path4319"
             inkscape:connector-curvature="0" />
        </g>
      </g>
    </g>
  </g>
</svg>
